<mxfile host="app.diagrams.net" modified="2024-02-17T06:20:47.443Z" agent="Mozilla/5.0 (Windows NT 10.0; Win64; x64) AppleWebKit/537.36 (KHTML, like Gecko) Chrome/121.0.0.0 Safari/537.36" etag="RE1ntRrajKCQbW-YtE_I" version="23.1.5" type="device">
  <diagram name="페이지-1" id="QouG5cnRgxNIIw9hVeFd">
    <mxGraphModel dx="5607" dy="2600" grid="1" gridSize="10" guides="1" tooltips="1" connect="1" arrows="1" fold="1" page="1" pageScale="1" pageWidth="827" pageHeight="1169" math="0" shadow="0">
      <root>
        <mxCell id="0" />
        <mxCell id="1" parent="0" />
        <mxCell id="tToiSPfZzlxQRiAHiZNh-1" value="&lt;b&gt;&lt;font style=&quot;font-size: 18px;&quot;&gt;Creator&lt;/font&gt;&lt;/b&gt;" style="shape=umlActor;verticalLabelPosition=bottom;verticalAlign=top;html=1;outlineConnect=0;" vertex="1" parent="1">
          <mxGeometry x="-90" y="940" width="50" height="110" as="geometry" />
        </mxCell>
        <mxCell id="tToiSPfZzlxQRiAHiZNh-2" value="&lt;font style=&quot;font-size: 27px;&quot;&gt;&lt;b&gt;Raffle.sol&lt;br&gt;&lt;/b&gt;&lt;/font&gt;" style="rounded=0;whiteSpace=wrap;html=1;" vertex="1" parent="1">
          <mxGeometry x="190" y="965" width="170" height="60" as="geometry" />
        </mxCell>
        <mxCell id="tToiSPfZzlxQRiAHiZNh-3" value="" style="endArrow=classic;startArrow=classic;html=1;rounded=0;" edge="1" parent="1">
          <mxGeometry width="50" height="50" relative="1" as="geometry">
            <mxPoint x="-20" y="1000" as="sourcePoint" />
            <mxPoint x="150" y="1000" as="targetPoint" />
          </mxGeometry>
        </mxCell>
        <mxCell id="tToiSPfZzlxQRiAHiZNh-4" value="&lt;b&gt;&lt;font style=&quot;font-size: 18px;&quot;&gt;Create Raffles, transfering a prize, and FUSDT&lt;/font&gt;&lt;/b&gt;" style="text;html=1;align=center;verticalAlign=middle;whiteSpace=wrap;rounded=0;" vertex="1" parent="1">
          <mxGeometry x="-150" y="910" width="420" height="30" as="geometry" />
        </mxCell>
        <mxCell id="tToiSPfZzlxQRiAHiZNh-21" value="&lt;font style=&quot;font-size: 27px;&quot;&gt;&lt;b&gt;RaffleVault.sol&lt;br&gt;&lt;/b&gt;&lt;/font&gt;" style="rounded=0;whiteSpace=wrap;html=1;" vertex="1" parent="1">
          <mxGeometry x="590" y="965" width="220" height="60" as="geometry" />
        </mxCell>
        <mxCell id="tToiSPfZzlxQRiAHiZNh-22" value="" style="endArrow=classic;startArrow=classic;html=1;rounded=0;" edge="1" parent="1">
          <mxGeometry width="50" height="50" relative="1" as="geometry">
            <mxPoint x="390" y="1000" as="sourcePoint" />
            <mxPoint x="560" y="1000" as="targetPoint" />
          </mxGeometry>
        </mxCell>
        <mxCell id="tToiSPfZzlxQRiAHiZNh-23" value="&lt;b&gt;&lt;font style=&quot;font-size: 18px;&quot;&gt;Send a prize (ERC20, ERC721 or ERC1155)&lt;/font&gt;&lt;/b&gt;" style="text;html=1;align=center;verticalAlign=middle;whiteSpace=wrap;rounded=0;" vertex="1" parent="1">
          <mxGeometry x="310" y="880" width="370" height="30" as="geometry" />
        </mxCell>
        <mxCell id="tToiSPfZzlxQRiAHiZNh-24" value="&lt;b&gt;&lt;font style=&quot;font-size: 18px;&quot;&gt;Send 10 FUSDT as a raffle deposit&lt;/font&gt;&lt;/b&gt;" style="text;html=1;align=center;verticalAlign=middle;whiteSpace=wrap;rounded=0;" vertex="1" parent="1">
          <mxGeometry x="224" y="920" width="470" height="30" as="geometry" />
        </mxCell>
        <mxCell id="tToiSPfZzlxQRiAHiZNh-25" value="&lt;b&gt;&lt;font style=&quot;font-size: 18px;&quot;&gt;Participants&lt;/font&gt;&lt;/b&gt;" style="shape=umlActor;verticalLabelPosition=bottom;verticalAlign=top;html=1;outlineConnect=0;" vertex="1" parent="1">
          <mxGeometry x="-20" y="1440" width="50" height="110" as="geometry" />
        </mxCell>
        <mxCell id="tToiSPfZzlxQRiAHiZNh-26" value="&lt;font style=&quot;font-size: 27px;&quot;&gt;&lt;b&gt;Raffle.sol&lt;br&gt;&lt;/b&gt;&lt;/font&gt;" style="rounded=0;whiteSpace=wrap;html=1;" vertex="1" parent="1">
          <mxGeometry x="260" y="1465" width="170" height="60" as="geometry" />
        </mxCell>
        <mxCell id="tToiSPfZzlxQRiAHiZNh-27" value="" style="endArrow=classic;startArrow=classic;html=1;rounded=0;" edge="1" parent="1">
          <mxGeometry width="50" height="50" relative="1" as="geometry">
            <mxPoint x="50" y="1500" as="sourcePoint" />
            <mxPoint x="220" y="1500" as="targetPoint" />
          </mxGeometry>
        </mxCell>
        <mxCell id="tToiSPfZzlxQRiAHiZNh-28" value="&lt;b&gt;&lt;font style=&quot;font-size: 18px;&quot;&gt;Join raffles, paying FUSDT for raffle tickets&lt;/font&gt;&lt;/b&gt;" style="text;html=1;align=center;verticalAlign=middle;whiteSpace=wrap;rounded=0;" vertex="1" parent="1">
          <mxGeometry x="-50" y="1410" width="390" height="30" as="geometry" />
        </mxCell>
        <mxCell id="tToiSPfZzlxQRiAHiZNh-29" value="&lt;font style=&quot;font-size: 27px;&quot;&gt;&lt;b style=&quot;border-color: var(--border-color);&quot;&gt;RaffleVault.sol&lt;/b&gt;&lt;b&gt;&lt;br&gt;&lt;/b&gt;&lt;/font&gt;" style="rounded=0;whiteSpace=wrap;html=1;" vertex="1" parent="1">
          <mxGeometry x="660" y="1465" width="220" height="60" as="geometry" />
        </mxCell>
        <mxCell id="tToiSPfZzlxQRiAHiZNh-30" value="" style="endArrow=classic;startArrow=classic;html=1;rounded=0;" edge="1" parent="1">
          <mxGeometry width="50" height="50" relative="1" as="geometry">
            <mxPoint x="460" y="1500" as="sourcePoint" />
            <mxPoint x="630" y="1500" as="targetPoint" />
          </mxGeometry>
        </mxCell>
        <mxCell id="tToiSPfZzlxQRiAHiZNh-32" value="&lt;b&gt;&lt;font style=&quot;font-size: 18px;&quot;&gt;Send FUSDT as a raffle ticket fee&lt;/font&gt;&lt;/b&gt;" style="text;html=1;align=center;verticalAlign=middle;whiteSpace=wrap;rounded=0;" vertex="1" parent="1">
          <mxGeometry x="340" y="1420" width="470" height="30" as="geometry" />
        </mxCell>
        <mxCell id="tToiSPfZzlxQRiAHiZNh-40" value="&lt;font style=&quot;font-size: 27px;&quot;&gt;&lt;b&gt;Chainlink VRF&lt;br&gt;&lt;/b&gt;&lt;/font&gt;" style="rounded=0;whiteSpace=wrap;html=1;" vertex="1" parent="1">
          <mxGeometry x="20" y="1754" width="219" height="60" as="geometry" />
        </mxCell>
        <mxCell id="tToiSPfZzlxQRiAHiZNh-41" value="&lt;font style=&quot;font-size: 27px;&quot;&gt;&lt;b&gt;Chainlink Upkeep&lt;br&gt;&lt;/b&gt;&lt;/font&gt;" style="rounded=0;whiteSpace=wrap;html=1;" vertex="1" parent="1">
          <mxGeometry x="20" y="1944" width="280" height="60" as="geometry" />
        </mxCell>
        <mxCell id="tToiSPfZzlxQRiAHiZNh-43" value="&lt;b&gt;&lt;font style=&quot;font-size: 18px;&quot;&gt;Check raffle deadline &amp;amp; draw a winner&lt;/font&gt;&lt;/b&gt;" style="text;html=1;align=center;verticalAlign=middle;whiteSpace=wrap;rounded=0;" vertex="1" parent="1">
          <mxGeometry x="310" y="1944" width="370" height="30" as="geometry" />
        </mxCell>
        <mxCell id="tToiSPfZzlxQRiAHiZNh-44" value="&lt;b&gt;&lt;font style=&quot;font-size: 18px;&quot;&gt;Request &amp;amp; receive a random number for each raffle&lt;/font&gt;&lt;/b&gt;" style="text;html=1;align=center;verticalAlign=middle;whiteSpace=wrap;rounded=0;" vertex="1" parent="1">
          <mxGeometry x="170" y="1854" width="440" height="30" as="geometry" />
        </mxCell>
        <mxCell id="tToiSPfZzlxQRiAHiZNh-45" value="" style="endArrow=classic;startArrow=classic;html=1;rounded=0;" edge="1" parent="1">
          <mxGeometry width="50" height="50" relative="1" as="geometry">
            <mxPoint x="150" y="1934" as="sourcePoint" />
            <mxPoint x="150" y="1824" as="targetPoint" />
          </mxGeometry>
        </mxCell>
        <mxCell id="tToiSPfZzlxQRiAHiZNh-46" value="&lt;font style=&quot;font-size: 27px;&quot;&gt;&lt;b&gt;Raffle.sol&lt;br&gt;&lt;/b&gt;&lt;/font&gt;" style="rounded=0;whiteSpace=wrap;html=1;" vertex="1" parent="1">
          <mxGeometry x="740" y="1944" width="170" height="60" as="geometry" />
        </mxCell>
        <mxCell id="tToiSPfZzlxQRiAHiZNh-47" value="" style="endArrow=classic;startArrow=classic;html=1;rounded=0;" edge="1" parent="1">
          <mxGeometry width="50" height="50" relative="1" as="geometry">
            <mxPoint x="320" y="1984" as="sourcePoint" />
            <mxPoint x="720" y="1984" as="targetPoint" />
          </mxGeometry>
        </mxCell>
        <mxCell id="tToiSPfZzlxQRiAHiZNh-48" value="&lt;font style=&quot;font-size: 27px;&quot;&gt;&lt;b&gt;raffleVault&lt;br&gt;&lt;/b&gt;&lt;/font&gt;" style="rounded=0;whiteSpace=wrap;html=1;" vertex="1" parent="1">
          <mxGeometry x="1000" y="1944" width="220" height="60" as="geometry" />
        </mxCell>
        <mxCell id="tToiSPfZzlxQRiAHiZNh-49" value="&lt;b&gt;&lt;font style=&quot;font-size: 18px;&quot;&gt;Winner&lt;/font&gt;&lt;/b&gt;" style="shape=umlActor;verticalLabelPosition=bottom;verticalAlign=top;html=1;outlineConnect=0;" vertex="1" parent="1">
          <mxGeometry x="1210" y="2170" width="50" height="110" as="geometry" />
        </mxCell>
        <mxCell id="tToiSPfZzlxQRiAHiZNh-52" value="&lt;b&gt;&lt;font style=&quot;font-size: 18px;&quot;&gt;Winner&lt;/font&gt;&lt;/b&gt;" style="shape=umlActor;verticalLabelPosition=bottom;verticalAlign=top;html=1;outlineConnect=0;" vertex="1" parent="1">
          <mxGeometry x="1020" y="2170" width="50" height="110" as="geometry" />
        </mxCell>
        <mxCell id="tToiSPfZzlxQRiAHiZNh-54" value="" style="endArrow=classic;html=1;rounded=0;" edge="1" parent="1">
          <mxGeometry width="50" height="50" relative="1" as="geometry">
            <mxPoint x="1070" y="2030" as="sourcePoint" />
            <mxPoint x="1040" y="2140" as="targetPoint" />
          </mxGeometry>
        </mxCell>
        <mxCell id="tToiSPfZzlxQRiAHiZNh-56" value="&lt;span style=&quot;font-size: 18px;&quot;&gt;&lt;b&gt;Send a raffle prize&lt;/b&gt;&lt;/span&gt;" style="text;html=1;align=center;verticalAlign=middle;whiteSpace=wrap;rounded=0;" vertex="1" parent="1">
          <mxGeometry x="730" y="2080" width="370" height="30" as="geometry" />
        </mxCell>
        <mxCell id="tToiSPfZzlxQRiAHiZNh-58" value="&lt;span style=&quot;font-size: 18px;&quot;&gt;&lt;b&gt;send 90% of ticket sales + the deposit&amp;nbsp;&lt;/b&gt;&lt;/span&gt;" style="text;html=1;align=center;verticalAlign=middle;whiteSpace=wrap;rounded=0;" vertex="1" parent="1">
          <mxGeometry x="1200" y="2060" width="370" height="30" as="geometry" />
        </mxCell>
        <mxCell id="tToiSPfZzlxQRiAHiZNh-59" value="" style="endArrow=classic;html=1;rounded=0;" edge="1" parent="1">
          <mxGeometry width="50" height="50" relative="1" as="geometry">
            <mxPoint x="1170" y="2030" as="sourcePoint" />
            <mxPoint x="1200" y="2140" as="targetPoint" />
          </mxGeometry>
        </mxCell>
        <mxCell id="tToiSPfZzlxQRiAHiZNh-60" value="&lt;font style=&quot;font-size: 27px;&quot;&gt;&lt;b&gt;RewardVault.sol&lt;br&gt;&lt;/b&gt;&lt;/font&gt;" style="rounded=0;whiteSpace=wrap;html=1;" vertex="1" parent="1">
          <mxGeometry x="1180" y="1754" width="220" height="60" as="geometry" />
        </mxCell>
        <mxCell id="tToiSPfZzlxQRiAHiZNh-61" value="&lt;font style=&quot;font-size: 27px;&quot;&gt;&lt;b&gt;TeamVault.sol&lt;br&gt;&lt;/b&gt;&lt;/font&gt;" style="rounded=0;whiteSpace=wrap;html=1;" vertex="1" parent="1">
          <mxGeometry x="910" y="1754" width="220" height="60" as="geometry" />
        </mxCell>
        <mxCell id="tToiSPfZzlxQRiAHiZNh-62" value="" style="endArrow=classic;html=1;rounded=0;" edge="1" parent="1">
          <mxGeometry width="50" height="50" relative="1" as="geometry">
            <mxPoint x="1070" y="1940" as="sourcePoint" />
            <mxPoint x="1030" y="1840" as="targetPoint" />
          </mxGeometry>
        </mxCell>
        <mxCell id="tToiSPfZzlxQRiAHiZNh-63" value="" style="endArrow=classic;html=1;rounded=0;" edge="1" parent="1">
          <mxGeometry width="50" height="50" relative="1" as="geometry">
            <mxPoint x="1170" y="1940" as="sourcePoint" />
            <mxPoint x="1220" y="1830" as="targetPoint" />
          </mxGeometry>
        </mxCell>
        <mxCell id="tToiSPfZzlxQRiAHiZNh-64" value="&lt;span style=&quot;font-size: 18px;&quot;&gt;&lt;b&gt;send 5% of ticket sales&amp;nbsp;&lt;/b&gt;&lt;/span&gt;" style="text;html=1;align=center;verticalAlign=middle;whiteSpace=wrap;rounded=0;" vertex="1" parent="1">
          <mxGeometry x="750" y="1854" width="370" height="30" as="geometry" />
        </mxCell>
        <mxCell id="tToiSPfZzlxQRiAHiZNh-65" value="&lt;span style=&quot;font-size: 18px;&quot;&gt;&lt;b&gt;send 5% of ticket sales&amp;nbsp;&lt;/b&gt;&lt;/span&gt;" style="text;html=1;align=center;verticalAlign=middle;whiteSpace=wrap;rounded=0;" vertex="1" parent="1">
          <mxGeometry x="1140" y="1854" width="370" height="30" as="geometry" />
        </mxCell>
        <mxCell id="tToiSPfZzlxQRiAHiZNh-67" value="" style="endArrow=classic;html=1;rounded=0;" edge="1" parent="1">
          <mxGeometry width="50" height="50" relative="1" as="geometry">
            <mxPoint x="920" y="1980" as="sourcePoint" />
            <mxPoint x="990" y="1980" as="targetPoint" />
          </mxGeometry>
        </mxCell>
        <mxCell id="tToiSPfZzlxQRiAHiZNh-69" value="&lt;font style=&quot;font-size: 27px;&quot;&gt;&lt;b&gt;Chainlink VRF&lt;br&gt;&lt;/b&gt;&lt;/font&gt;" style="rounded=0;whiteSpace=wrap;html=1;" vertex="1" parent="1">
          <mxGeometry y="2480" width="219" height="60" as="geometry" />
        </mxCell>
        <mxCell id="tToiSPfZzlxQRiAHiZNh-70" value="&lt;font style=&quot;font-size: 27px;&quot;&gt;&lt;b&gt;Chainlink Upkeep&lt;br&gt;&lt;/b&gt;&lt;/font&gt;" style="rounded=0;whiteSpace=wrap;html=1;" vertex="1" parent="1">
          <mxGeometry y="2670" width="280" height="60" as="geometry" />
        </mxCell>
        <mxCell id="tToiSPfZzlxQRiAHiZNh-71" value="&lt;b&gt;&lt;font style=&quot;font-size: 18px;&quot;&gt;Cancel a raffle due to the insufficient number of required users&lt;/font&gt;&lt;/b&gt;" style="text;html=1;align=center;verticalAlign=middle;whiteSpace=wrap;rounded=0;" vertex="1" parent="1">
          <mxGeometry x="195" y="2640" width="600" height="30" as="geometry" />
        </mxCell>
        <mxCell id="tToiSPfZzlxQRiAHiZNh-72" value="&lt;b&gt;&lt;font style=&quot;font-size: 18px;&quot;&gt;Request &amp;amp; receive a random number for each raffle&lt;/font&gt;&lt;/b&gt;" style="text;html=1;align=center;verticalAlign=middle;whiteSpace=wrap;rounded=0;" vertex="1" parent="1">
          <mxGeometry x="150" y="2580" width="440" height="30" as="geometry" />
        </mxCell>
        <mxCell id="tToiSPfZzlxQRiAHiZNh-73" value="" style="endArrow=classic;startArrow=classic;html=1;rounded=0;" edge="1" parent="1">
          <mxGeometry width="50" height="50" relative="1" as="geometry">
            <mxPoint x="130" y="2660" as="sourcePoint" />
            <mxPoint x="130" y="2550" as="targetPoint" />
          </mxGeometry>
        </mxCell>
        <mxCell id="tToiSPfZzlxQRiAHiZNh-74" value="&lt;font style=&quot;font-size: 27px;&quot;&gt;&lt;b&gt;Raffle.sol&lt;br&gt;&lt;/b&gt;&lt;/font&gt;" style="rounded=0;whiteSpace=wrap;html=1;" vertex="1" parent="1">
          <mxGeometry x="720" y="2670" width="170" height="60" as="geometry" />
        </mxCell>
        <mxCell id="tToiSPfZzlxQRiAHiZNh-75" value="" style="endArrow=classic;startArrow=classic;html=1;rounded=0;" edge="1" parent="1">
          <mxGeometry width="50" height="50" relative="1" as="geometry">
            <mxPoint x="300" y="2710" as="sourcePoint" />
            <mxPoint x="700" y="2710" as="targetPoint" />
          </mxGeometry>
        </mxCell>
        <mxCell id="tToiSPfZzlxQRiAHiZNh-76" value="&lt;font style=&quot;font-size: 27px;&quot;&gt;&lt;b&gt;raffleVault&lt;br&gt;&lt;/b&gt;&lt;/font&gt;" style="rounded=0;whiteSpace=wrap;html=1;" vertex="1" parent="1">
          <mxGeometry x="980" y="2670" width="220" height="60" as="geometry" />
        </mxCell>
        <mxCell id="tToiSPfZzlxQRiAHiZNh-77" value="&lt;b&gt;&lt;font style=&quot;font-size: 18px;&quot;&gt;Creator&lt;/font&gt;&lt;/b&gt;" style="shape=umlActor;verticalLabelPosition=bottom;verticalAlign=top;html=1;outlineConnect=0;" vertex="1" parent="1">
          <mxGeometry x="1080" y="2910" width="50" height="110" as="geometry" />
        </mxCell>
        <mxCell id="tToiSPfZzlxQRiAHiZNh-81" value="&lt;span style=&quot;font-size: 18px;&quot;&gt;&lt;b&gt;send 95% of deposit&lt;/b&gt;&lt;/span&gt;" style="text;html=1;align=center;verticalAlign=middle;whiteSpace=wrap;rounded=0;" vertex="1" parent="1">
          <mxGeometry x="1020" y="2800" width="370" height="30" as="geometry" />
        </mxCell>
        <mxCell id="tToiSPfZzlxQRiAHiZNh-82" value="" style="endArrow=classic;html=1;rounded=0;" edge="1" parent="1">
          <mxGeometry width="50" height="50" relative="1" as="geometry">
            <mxPoint x="1100" y="2756" as="sourcePoint" />
            <mxPoint x="1100" y="2890" as="targetPoint" />
          </mxGeometry>
        </mxCell>
        <mxCell id="tToiSPfZzlxQRiAHiZNh-83" value="&lt;font style=&quot;font-size: 27px;&quot;&gt;&lt;b&gt;RewardVault.sol&lt;br&gt;&lt;/b&gt;&lt;/font&gt;" style="rounded=0;whiteSpace=wrap;html=1;" vertex="1" parent="1">
          <mxGeometry x="1160" y="2480" width="220" height="60" as="geometry" />
        </mxCell>
        <mxCell id="tToiSPfZzlxQRiAHiZNh-84" value="&lt;font style=&quot;font-size: 27px;&quot;&gt;&lt;b&gt;TeamVault.sol&lt;br&gt;&lt;/b&gt;&lt;/font&gt;" style="rounded=0;whiteSpace=wrap;html=1;" vertex="1" parent="1">
          <mxGeometry x="890" y="2480" width="220" height="60" as="geometry" />
        </mxCell>
        <mxCell id="tToiSPfZzlxQRiAHiZNh-85" value="" style="endArrow=classic;html=1;rounded=0;" edge="1" parent="1">
          <mxGeometry width="50" height="50" relative="1" as="geometry">
            <mxPoint x="1050" y="2666" as="sourcePoint" />
            <mxPoint x="1010" y="2566" as="targetPoint" />
          </mxGeometry>
        </mxCell>
        <mxCell id="tToiSPfZzlxQRiAHiZNh-86" value="" style="endArrow=classic;html=1;rounded=0;" edge="1" parent="1">
          <mxGeometry width="50" height="50" relative="1" as="geometry">
            <mxPoint x="1150" y="2666" as="sourcePoint" />
            <mxPoint x="1200" y="2556" as="targetPoint" />
          </mxGeometry>
        </mxCell>
        <mxCell id="tToiSPfZzlxQRiAHiZNh-87" value="&lt;span style=&quot;font-size: 18px;&quot;&gt;&lt;b&gt;send 2.5% of ticket sales&amp;nbsp;&lt;/b&gt;&lt;/span&gt;" style="text;html=1;align=center;verticalAlign=middle;whiteSpace=wrap;rounded=0;" vertex="1" parent="1">
          <mxGeometry x="730" y="2580" width="370" height="30" as="geometry" />
        </mxCell>
        <mxCell id="tToiSPfZzlxQRiAHiZNh-88" value="&lt;span style=&quot;font-size: 18px;&quot;&gt;&lt;b&gt;send 2.5% of ticket sales&amp;nbsp;&lt;/b&gt;&lt;/span&gt;" style="text;html=1;align=center;verticalAlign=middle;whiteSpace=wrap;rounded=0;" vertex="1" parent="1">
          <mxGeometry x="1120" y="2580" width="370" height="30" as="geometry" />
        </mxCell>
        <mxCell id="tToiSPfZzlxQRiAHiZNh-89" value="" style="endArrow=classic;html=1;rounded=0;" edge="1" parent="1">
          <mxGeometry width="50" height="50" relative="1" as="geometry">
            <mxPoint x="900" y="2706" as="sourcePoint" />
            <mxPoint x="970" y="2706" as="targetPoint" />
          </mxGeometry>
        </mxCell>
        <mxCell id="tToiSPfZzlxQRiAHiZNh-92" value="&lt;b&gt;&lt;font style=&quot;font-size: 18px;&quot;&gt;Participants&lt;/font&gt;&lt;/b&gt;" style="shape=umlActor;verticalLabelPosition=bottom;verticalAlign=top;html=1;outlineConnect=0;" vertex="1" parent="1">
          <mxGeometry x="720" y="2890" width="50" height="110" as="geometry" />
        </mxCell>
        <mxCell id="tToiSPfZzlxQRiAHiZNh-94" value="" style="endArrow=classic;startArrow=classic;html=1;rounded=0;" edge="1" parent="1">
          <mxGeometry width="50" height="50" relative="1" as="geometry">
            <mxPoint x="790" y="2950" as="sourcePoint" />
            <mxPoint x="790" y="2740" as="targetPoint" />
          </mxGeometry>
        </mxCell>
        <mxCell id="tToiSPfZzlxQRiAHiZNh-97" value="&lt;span style=&quot;font-size: 18px;&quot;&gt;&lt;b&gt;Claim a refund&amp;nbsp;&lt;/b&gt;&lt;/span&gt;" style="text;html=1;align=center;verticalAlign=middle;whiteSpace=wrap;rounded=0;" vertex="1" parent="1">
          <mxGeometry x="680" y="2830" width="370" height="30" as="geometry" />
        </mxCell>
      </root>
    </mxGraphModel>
  </diagram>
</mxfile>
